<svg width="26" height="22" viewBox="0 0 26 22" fill="none" xmlns="http://www.w3.org/2000/svg">
<path fill-rule="evenodd" clip-rule="evenodd" d="M12.9679 20.7629C9.1891 20.7629 5.96094 20.1913 5.96094 17.9023C5.96094 15.6133 9.1681 13.6206 12.9679 13.6206C16.7468 13.6206 19.9749 15.5946 19.9749 17.8824C19.9749 20.1703 16.7678 20.7629 12.9679 20.7629Z" stroke="#212121" stroke-width="1.5" stroke-linecap="round" stroke-linejoin="round"/>
<path fill-rule="evenodd" clip-rule="evenodd" d="M12.968 10.3568C15.4483 10.3568 17.4597 8.34663 17.4597 5.8663C17.4597 3.38597 15.4483 1.37463 12.968 1.37463C10.4877 1.37463 8.47634 3.38597 8.47634 5.8663C8.46934 8.3373 10.4643 10.3486 12.9365 10.3568H12.968Z" stroke="#212121" stroke-width="1.5" stroke-linecap="round" stroke-linejoin="round"/>
<path d="M20.4227 9.12354C21.8658 8.73737 22.9298 7.42137 22.9298 5.85454C22.9298 4.22004 21.7713 2.85504 20.229 2.54004" stroke="#212121" stroke-width="1.5" stroke-linecap="round" stroke-linejoin="round"/>
<path d="M21.1006 12.8018C23.1469 12.8018 24.8946 14.1889 24.8946 15.4279C24.8946 16.1571 24.2914 16.9516 23.3768 17.1663" stroke="#212121" stroke-width="1.5" stroke-linecap="round" stroke-linejoin="round"/>
<path d="M5.51444 9.12354C4.0701 8.73737 3.0061 7.42137 3.0061 5.85454C3.0061 4.22004 4.16577 2.85504 5.70694 2.54004" stroke="#212121" stroke-width="1.5" stroke-linecap="round" stroke-linejoin="round"/>
<path d="M4.8355 12.8018C2.78917 12.8018 1.0415 14.1889 1.0415 15.4279C1.0415 16.1571 1.64467 16.9516 2.5605 17.1663" stroke="#212121" stroke-width="1.5" stroke-linecap="round" stroke-linejoin="round"/>
</svg>
