<svg width="24" height="24" viewBox="0 0 24 24" fill="none" xmlns="http://www.w3.org/2000/svg">
<rect width="24" height="24" rx="6" fill="#7367F0" fill-opacity="0.08"/>
<path d="M10.5 13.4998C10.9937 14.0037 11.6695 14.2877 12.375 14.2877C13.0805 14.2877 13.7563 14.0037 14.25 13.4998L17.25 10.4998C18.2855 9.46426 18.2855 7.78533 17.25 6.74979C16.2145 5.71426 14.5355 5.71426 13.5 6.74979L13.125 7.12479" stroke="#7367F0" stroke-width="1.5" stroke-linecap="round" stroke-linejoin="round"/>
<path d="M13.5003 10.4998C13.0065 9.99588 12.3308 9.71191 11.6253 9.71191C10.9198 9.71191 10.244 9.99588 9.75028 10.4998L6.75028 13.4998C5.71475 14.5353 5.71475 16.2143 6.75028 17.2498C7.78582 18.2853 9.46475 18.2853 10.5003 17.2498L10.8753 16.8748" stroke="#7367F0" stroke-width="1.5" stroke-linecap="round" stroke-linejoin="round"/>
</svg>
