<svg width="22" height="22" viewBox="0 0 22 22" fill="none" xmlns="http://www.w3.org/2000/svg">
<path fill-rule="evenodd" clip-rule="evenodd" d="M17.9464 18.0699C14.8902 21.1263 10.3648 21.7867 6.66142 20.074C6.11471 19.8539 5.66648 19.676 5.24037 19.676C4.05349 19.683 2.57617 20.8339 1.80836 20.067C1.04055 19.2991 2.19226 17.8206 2.19226 16.6266C2.19226 16.2004 2.02142 15.7602 1.80132 15.2124C0.0878307 11.5096 0.749109 6.98269 3.80526 3.92721C7.7066 0.0244319 14.045 0.0244322 17.9464 3.9262C21.8547 7.83501 21.8477 14.1681 17.9464 18.0699Z" stroke="#9E9E9E" stroke-width="1.5" stroke-linecap="round" stroke-linejoin="round"/>
<path d="M14.8148 11.4131H14.8238" stroke="#9E9E9E" stroke-width="2" stroke-linecap="round" stroke-linejoin="round"/>
<path d="M10.8051 11.4131H10.8141" stroke="#9E9E9E" stroke-width="2" stroke-linecap="round" stroke-linejoin="round"/>
<path d="M6.79628 11.4131H6.80528" stroke="#9E9E9E" stroke-width="2" stroke-linecap="round" stroke-linejoin="round"/>
</svg>
